<?xml version="1.0" encoding="UTF-8"?><svg id="background" xmlns="http://www.w3.org/2000/svg" viewBox="0 0 772.6 489.06"><defs><style>.cls-1,.cls-2{fill:#fff;}.cls-2{stroke:#fff;stroke-miterlimit:10;}</style></defs><g><path class="cls-1" d="m595.58,86.56c-.51-.5-1.29-.66-2.02-.44l-63.67,20.01-40.5-52.34c-.5-.65-1.43-.9-2.24-.61l-85.99,29.76,23.42-70.6c.2-.59.07-1.22-.34-1.69-.41-.46-1.04-.7-1.7-.63l-128.8,13.86c-.75.08-1.4.55-1.69,1.21-.28.66-.15,1.4.35,1.9l29.63,30.3,12.84,78.22-62.38-32.85c-.36-.19-.78-.26-1.2-.21l-59.54,7.08c-1.01.12-1.8.94-1.81,1.89l-.7,65.81c-.01.98.8,1.76,1.84,1.79l79.46,2.24-47.93,63.61-60.14-19.84-1.45,3.49,61.57,20.31c.84.28,1.8-.02,2.33-.73l50.92-67.57c.42-.56.49-1.27.19-1.87-.3-.6-.94-.98-1.65-1l-81.15-2.29.66-62.4,57.1-6.79,65.45,34.46c.66.35,1.48.3,2.13-.13.64-.42.97-1.14.86-1.85l-13.57-82.63c-.06-.35-.22-.67-.47-.92l-27.39-28,121.92-13.12-23.71,71.45c-.22.67-.03,1.38.5,1.85.53.47,1.29.62,2.01.36l81.32-28.15-64.5,61.89c-.5.49-.71,1.17-.52,1.81.18.63.72,1.11,1.4,1.26l75.37,15.84,6.64,44.68-39.99-5.9-75.61-38.02c-.09-.05-.19-.09-.29-.12l-37.46-11.91c-.66-.21-1.42-.07-1.97.38-.55.44-.81,1.12-.69,1.77l18.81,99.18c.17.87.98,1.48,1.94,1.45l100.52-3.43,7.38,4.46,35.55-41.58,48.52,10.09-28.33,36.93c-.1.13-.18.27-.24.41l3.58,1.46,29.91-38.99c.39-.51.49-1.15.27-1.72-.22-.57-.73-.99-1.36-1.12l-52.57-10.93c-.75-.15-1.54.11-2.03.69l-31.65,37.03c-.36-.43-.94-.69-1.57-.67l-106.31,3.63-17.92-94.49,34.05,10.83,75.76,38.1c.19.09.39.16.61.19l43.05,6.35c.63.09,1.28-.11,1.74-.53.47-.43.69-1.03.6-1.62l-6.8-45.71,70.49,14.81c.98.21,1.99-.31,2.36-1.21l27.17-66.33c.27-.67.12-1.41-.39-1.9Zm-104.36,49.81l-70.42-14.8,59.7-57.28,10.72,72.08Zm74.53,15.66l-70.38-14.79-11.49-77.24c-.09-.64-.54-1.17-1.17-1.4l4.28-1.48,40.47,52.31c.49.63,1.36.87,2.18.63l61.17-19.23-25.07,61.2Z"/><polygon class="cls-1" points="247.36 115.71 207.15 128.92 194.65 91.9 247.36 115.71"/><polygon class="cls-1" points="243.58 143.14 230.67 195.26 175.31 185.35 243.58 143.14"/><polygon class="cls-1" points="203.41 240.65 163 233.42 172.43 195.38 203.41 240.65"/><polygon class="cls-1" points="214.77 236.8 245.76 228.99 251.35 261.37 214.77 236.8"/><polygon class="cls-1" points="341.41 179.59 283.19 207.7 255.44 154.48 341.41 179.59"/><polygon class="cls-1" points="264.46 74.3 295.01 100.16 266.02 129.75 264.46 74.3"/><polygon class="cls-1" points="372.45 136.22 332.24 149.42 319.73 112.41 372.45 136.22"/><polygon class="cls-1" points="531.43 186.46 491.21 199.66 478.71 162.65 531.43 186.46"/><polygon class="cls-1" points="407.46 190.47 373.18 254.72 305.69 225.35 407.46 190.47"/><polygon class="cls-1" points="415.9 136.17 468.95 168.32 432.28 219.2 415.9 136.17"/><polygon class="cls-1" points="466.42 114.69 451.39 49.11 522.34 32.37 466.42 114.69"/><polygon class="cls-1" points="494.78 208.84 475.84 250.33 432.12 234.35 494.78 208.84"/><polygon class="cls-1" points="281.41 50.75 286.77 11.59 328.54 14.98 281.41 50.75"/><polygon class="cls-1" points="369.84 38.73 334.79 90.56 280.65 59.96 369.84 38.73"/><polygon class="cls-1" points="424.03 54.52 411.11 106.64 355.75 96.73 424.03 54.52"/><polygon class="cls-1" points="598.22 59.22 608.63 110.93 552.74 122.79 598.22 59.22"/><polygon class="cls-1" points="599.01 157.26 554.67 175.23 537.23 134.56 599.01 157.26"/><polygon class="cls-1" points="511.32 125.04 516.05 88.4 555.15 91.31 511.32 125.04"/><polygon class="cls-1" points="498.72 215.19 544.92 219.48 538.42 262.81 498.72 215.19"/><polygon class="cls-1" points="402.73 0 444.47 3.63 438.85 42.76 402.73 0"/><polygon class="cls-1" points="565.54 185.13 558.86 207.15 535.52 201.82 565.54 185.13"/><polygon class="cls-1" points="393.94 131.06 401.9 152.14 378.97 160.44 393.94 131.06"/><polygon class="cls-1" points="438.56 112.74 424 131.41 404.58 118.58 438.56 112.74"/></g><g><path class="cls-1" d="m20.3,333.69c10.4,0,18.37,1.85,23.9,5.55,5.53,3.7,8.3,9.45,8.3,17.25,0,4.87-1.12,8.82-3.35,11.85-2.23,3.03-5.45,5.42-9.65,7.15,1.4,1.73,2.87,3.72,4.4,5.95,1.53,2.23,3.05,4.57,4.55,7s2.95,4.97,4.35,7.6c1.4,2.63,2.7,5.22,3.9,7.75h-17.44c-1.27-2.27-2.56-4.57-3.87-6.9-1.3-2.33-2.64-4.6-4.01-6.8-1.37-2.2-2.73-4.28-4.07-6.25-1.34-1.97-2.68-3.75-4.02-5.35h-7.7v25.3H0v-68.3c3.4-.67,6.92-1.13,10.55-1.4,3.63-.27,6.88-.4,9.75-.4Zm.9,13.3c-1.13,0-2.15.03-3.05.1-.9.07-1.75.13-2.55.2v18.8h4.4c5.87,0,10.07-.73,12.6-2.2,2.53-1.46,3.8-3.96,3.8-7.5s-1.28-5.82-3.85-7.25c-2.57-1.43-6.35-2.15-11.35-2.15Z"/><path class="cls-1" d="m140.4,369.09c0,5.93-.88,11.15-2.65,15.65-1.77,4.5-4.18,8.27-7.25,11.3-3.07,3.03-6.72,5.32-10.95,6.85-4.23,1.53-8.78,2.3-13.65,2.3s-9.2-.77-13.4-2.3c-4.2-1.53-7.87-3.82-11-6.85-3.13-3.03-5.6-6.8-7.4-11.3-1.8-4.5-2.7-9.72-2.7-15.65s.93-11.15,2.8-15.65c1.87-4.5,4.38-8.28,7.55-11.35,3.17-3.07,6.83-5.37,11-6.9,4.17-1.53,8.55-2.3,13.15-2.3s9.2.77,13.4,2.3c4.2,1.53,7.87,3.83,11,6.9,3.13,3.07,5.6,6.85,7.4,11.35,1.8,4.5,2.7,9.72,2.7,15.65Zm-52.9,0c0,3.4.42,6.47,1.25,9.2.83,2.73,2.03,5.08,3.6,7.05,1.57,1.97,3.48,3.48,5.75,4.55,2.27,1.07,4.87,1.6,7.8,1.6s5.45-.53,7.75-1.6c2.3-1.07,4.23-2.58,5.8-4.55,1.57-1.97,2.77-4.32,3.6-7.05.83-2.73,1.25-5.8,1.25-9.2s-.42-6.48-1.25-9.25c-.83-2.77-2.03-5.13-3.6-7.1-1.57-1.97-3.5-3.48-5.8-4.55s-4.88-1.6-7.75-1.6-5.53.55-7.8,1.65c-2.27,1.1-4.18,2.63-5.75,4.6-1.57,1.97-2.77,4.33-3.6,7.1-.83,2.77-1.25,5.82-1.25,9.15Z"/><path class="cls-1" d="m223.6,369.09c0,6-.93,11.23-2.8,15.7-1.87,4.47-4.52,8.17-7.95,11.1-3.43,2.93-7.62,5.13-12.55,6.6-4.93,1.47-10.47,2.2-16.6,2.2-2.8,0-6.07-.12-9.8-.35-3.73-.23-7.4-.72-11-1.45v-67.5c3.6-.67,7.35-1.12,11.25-1.35,3.9-.23,7.25-.35,10.05-.35,5.93,0,11.32.67,16.15,2,4.83,1.33,8.98,3.43,12.45,6.3,3.47,2.87,6.13,6.53,8,11,1.87,4.47,2.8,9.83,2.8,16.1Zm-45.1,22c.73.07,1.58.12,2.55.15.97.03,2.12.05,3.45.05,7.8,0,13.58-1.97,17.35-5.9,3.77-3.93,5.65-9.37,5.65-16.3s-1.8-12.77-5.4-16.5c-3.6-3.73-9.3-5.6-17.1-5.6-1.07,0-2.17.02-3.3.05-1.13.03-2.2.12-3.2.25v43.8Z"/><path class="cls-1" d="m246.1,403.79v-69.3h46.8v13.1h-31.2v13.6h27.7v12.8h-27.7v16.7h33.5v13.1h-49.1Z"/><path class="cls-1" d="m362.7,403.79c-4.47-7.93-9.3-15.77-14.5-23.5-5.2-7.73-10.73-15.03-16.6-21.9v45.4h-15.4v-69.3h12.7c2.2,2.2,4.63,4.9,7.3,8.1,2.67,3.2,5.38,6.62,8.15,10.25,2.77,3.63,5.52,7.4,8.25,11.3,2.73,3.9,5.3,7.65,7.7,11.25v-40.9h15.5v69.3h-13.1Z"/><path class="cls-1" d="m424.4,404.69c-3.8,0-7.58-.12-11.35-.35-3.77-.23-7.68-.78-11.75-1.65v-67.2c3.2-.6,6.7-1.05,10.5-1.35,3.8-.3,7.33-.45,10.6-.45,4.4,0,8.45.32,12.15.95,3.7.63,6.88,1.72,9.55,3.25,2.67,1.54,4.75,3.55,6.25,6.05s2.25,5.58,2.25,9.25c0,5.53-2.67,9.9-8,13.1,4.4,1.67,7.4,3.93,9,6.8,1.6,2.87,2.4,6.1,2.4,9.7,0,7.27-2.65,12.73-7.95,16.4-5.3,3.67-13.18,5.5-23.65,5.5Zm-7.9-43h7.6c4.8,0,8.23-.62,10.3-1.85,2.07-1.23,3.1-3.22,3.1-5.95s-1.07-4.77-3.2-5.9c-2.13-1.13-5.27-1.7-9.4-1.7-1.33,0-2.77.02-4.3.05-1.53.03-2.9.12-4.1.25v15.1Zm0,11.9v17.9c1.13.13,2.37.23,3.7.3,1.33.07,2.8.1,4.4.1,4.67,0,8.43-.67,11.3-2,2.87-1.33,4.3-3.8,4.3-7.4,0-3.2-1.2-5.48-3.6-6.85-2.4-1.37-5.83-2.05-10.3-2.05h-9.8Z"/><path class="cls-1" d="m544,369.09c0,5.93-.88,11.15-2.65,15.65-1.77,4.5-4.18,8.27-7.25,11.3-3.07,3.03-6.72,5.32-10.95,6.85-4.23,1.53-8.79,2.3-13.65,2.3s-9.2-.77-13.4-2.3c-4.2-1.53-7.87-3.82-11-6.85-3.13-3.03-5.6-6.8-7.4-11.3s-2.7-9.72-2.7-15.65.93-11.15,2.8-15.65c1.87-4.5,4.38-8.28,7.55-11.35,3.17-3.07,6.83-5.37,11-6.9,4.17-1.53,8.55-2.3,13.15-2.3s9.2.77,13.4,2.3c4.2,1.53,7.87,3.83,11,6.9,3.13,3.07,5.6,6.85,7.4,11.35s2.7,9.72,2.7,15.65Zm-52.9,0c0,3.4.42,6.47,1.25,9.2.83,2.73,2.03,5.08,3.6,7.05,1.57,1.97,3.48,3.48,5.75,4.55,2.27,1.07,4.87,1.6,7.8,1.6s5.45-.53,7.75-1.6c2.3-1.07,4.23-2.58,5.8-4.55,1.57-1.97,2.77-4.32,3.6-7.05.83-2.73,1.25-5.8,1.25-9.2s-.42-6.48-1.25-9.25c-.83-2.77-2.04-5.13-3.6-7.1-1.57-1.97-3.5-3.48-5.8-4.55s-4.88-1.6-7.75-1.6-5.53.55-7.8,1.65c-2.27,1.1-4.18,2.63-5.75,4.6-1.57,1.97-2.77,4.33-3.6,7.1-.83,2.77-1.25,5.82-1.25,9.15Z"/><path class="cls-1" d="m586.8,333.69c10.4,0,18.37,1.85,23.9,5.55,5.53,3.7,8.3,9.45,8.3,17.25,0,4.87-1.12,8.82-3.35,11.85-2.23,3.03-5.45,5.42-9.65,7.15,1.4,1.73,2.87,3.72,4.4,5.95,1.53,2.23,3.05,4.57,4.55,7s2.95,4.97,4.35,7.6c1.4,2.63,2.7,5.22,3.9,7.75h-17.44c-1.27-2.27-2.56-4.57-3.87-6.9-1.3-2.33-2.64-4.6-4.01-6.8-1.37-2.2-2.73-4.28-4.07-6.25-1.34-1.97-2.68-3.75-4.02-5.35h-7.7v25.3h-15.6v-68.3c3.4-.67,6.92-1.13,10.55-1.4,3.63-.27,6.88-.4,9.75-.4Zm.9,13.3c-1.13,0-2.15.03-3.05.1-.9.07-1.75.13-2.55.2v18.8h4.4c5.87,0,10.07-.73,12.6-2.2,2.53-1.46,3.8-3.96,3.8-7.5s-1.29-5.82-3.85-7.25c-2.57-1.43-6.35-2.15-11.35-2.15Z"/><path class="cls-1" d="m672.5,405.19c-11.27,0-19.85-3.13-25.75-9.4-5.9-6.27-8.85-15.17-8.85-26.7,0-5.73.9-10.85,2.7-15.35s4.27-8.3,7.4-11.4c3.13-3.1,6.87-5.45,11.2-7.05,4.33-1.6,9.03-2.4,14.1-2.4,2.93,0,5.6.22,8,.65,2.4.43,4.5.93,6.3,1.5,1.8.57,3.3,1.15,4.5,1.75s2.07,1.07,2.6,1.4l-4.5,12.6c-2.13-1.13-4.62-2.1-7.45-2.9-2.83-.8-6.05-1.2-9.65-1.2-2.4,0-4.75.4-7.05,1.2-2.3.8-4.33,2.08-6.1,3.85s-3.18,4.05-4.25,6.85c-1.07,2.8-1.6,6.2-1.6,10.2,0,3.2.35,6.18,1.05,8.95.7,2.77,1.83,5.15,3.4,7.15,1.57,2,3.62,3.58,6.15,4.75,2.53,1.17,5.6,1.75,9.2,1.75,2.27,0,4.3-.13,6.1-.4,1.8-.27,3.4-.58,4.8-.95,1.4-.37,2.63-.78,3.7-1.25,1.07-.47,2.03-.9,2.9-1.3l4.3,12.5c-2.2,1.33-5.3,2.53-9.3,3.6s-8.63,1.6-13.9,1.6Z"/><path class="cls-1" d="m757,334.49h15.6v69.3h-15.6v-29.4h-26.2v29.4h-15.6v-69.3h15.6v26.5h26.2v-26.5Z"/></g><g><path class="cls-1" d="m230.25,489.06c-2.9,0-5.6-.52-8.09-1.56-2.49-1.04-4.66-2.56-6.5-4.55-1.84-1.99-3.29-4.45-4.35-7.38-1.06-2.92-1.59-6.27-1.59-10.04s.57-7.12,1.72-10.04c1.15-2.92,2.68-5.38,4.58-7.38,1.91-1.99,4.12-3.5,6.63-4.52,2.51-1.02,5.14-1.53,7.87-1.53,1.69,0,3.23.11,4.61.32,1.39.22,2.6.49,3.64.81,1.04.33,1.93.65,2.67.98.74.33,1.3.62,1.69.88l-1.43,3.83c-1.08-.65-2.46-1.29-4.13-1.92-1.67-.63-3.74-.94-6.21-.94-2.82,0-5.28.48-7.38,1.43-2.1.95-3.87,2.3-5.3,4.03s-2.5,3.79-3.22,6.17c-.72,2.38-1.07,5.03-1.07,7.93s.36,5.69,1.07,8.09c.71,2.41,1.77,4.45,3.15,6.14,1.39,1.69,3.09,2.99,5.1,3.9,2.02.91,4.32,1.37,6.92,1.37,2.86,0,5.25-.27,7.18-.81,1.93-.54,3.39-1.09,4.39-1.66l1.24,3.77c-.3.22-.82.47-1.56.75-.74.28-1.67.58-2.79.88-1.13.3-2.43.55-3.9.75-1.47.2-3.12.29-4.94.29Z"/><path class="cls-1" d="m303.96,465.53c0,3.86-.56,7.26-1.69,10.21-1.13,2.95-2.65,5.41-4.58,7.38-1.93,1.97-4.17,3.46-6.73,4.45-2.56,1-5.26,1.49-8.12,1.49s-5.57-.5-8.12-1.49c-2.56-1-4.8-2.48-6.73-4.45-1.93-1.97-3.46-4.43-4.58-7.38-1.13-2.95-1.69-6.35-1.69-10.21s.56-7.25,1.69-10.17c1.13-2.92,2.65-5.37,4.58-7.34,1.93-1.97,4.17-3.46,6.73-4.45,2.56-1,5.27-1.49,8.12-1.49s5.57.5,8.12,1.49c2.56,1,4.8,2.48,6.73,4.45,1.93,1.97,3.46,4.42,4.58,7.34,1.13,2.92,1.69,6.32,1.69,10.17Zm-4.68,0c0-3.03-.39-5.75-1.17-8.16-.78-2.4-1.89-4.45-3.31-6.14-1.43-1.69-3.15-2.98-5.17-3.87-2.01-.89-4.28-1.33-6.79-1.33s-4.78.44-6.79,1.33c-2.01.89-3.74,2.18-5.17,3.87-1.43,1.69-2.53,3.74-3.31,6.14-.78,2.41-1.17,5.12-1.17,8.16s.39,5.75,1.17,8.16c.78,2.41,1.89,4.45,3.31,6.14,1.43,1.69,3.15,2.99,5.17,3.9,2.02.91,4.28,1.37,6.79,1.37s4.78-.46,6.79-1.37c2.02-.91,3.74-2.21,5.17-3.9,1.43-1.69,2.53-3.74,3.31-6.14.78-2.41,1.17-5.12,1.17-8.16Z"/><path class="cls-1" d="m352.45,484.25v3.83h-25.61v-45.04h4.42v41.21h21.19Z"/><path class="cls-1" d="m398.08,484.25v3.83h-25.61v-45.04h4.42v41.21h21.19Z"/><path class="cls-1" d="m418.1,488.08v-45.04h26v3.83h-21.58v15.67h19.24v3.77h-19.24v17.94h23.27v3.83h-27.69Z"/><path class="cls-1" d="m494.15,466.76h4.42v20.08c-.82.35-2.44.79-4.84,1.33s-5.36.81-8.87.81c-2.95,0-5.68-.52-8.19-1.56-2.51-1.04-4.69-2.54-6.53-4.52-1.84-1.97-3.28-4.42-4.32-7.34s-1.56-6.27-1.56-10.04.56-7.12,1.69-10.04c1.13-2.92,2.65-5.37,4.58-7.34,1.93-1.97,4.17-3.48,6.73-4.52,2.56-1.04,5.29-1.56,8.19-1.56,3.34,0,6.09.36,8.25,1.07,2.17.71,3.75,1.4,4.75,2.05l-1.5,3.77c-1.21-.87-2.86-1.57-4.94-2.11s-4.33-.81-6.76-.81c-2.25,0-4.38.41-6.37,1.23-1.99.82-3.73,2.06-5.2,3.71-1.47,1.65-2.63,3.68-3.48,6.11s-1.27,5.24-1.27,8.45c0,2.99.35,5.69,1.04,8.09.69,2.41,1.74,4.46,3.15,6.18s3.15,3.02,5.23,3.93c2.08.91,4.49,1.37,7.22,1.37,2.21,0,4.06-.12,5.56-.36,1.49-.24,2.5-.46,3.02-.68v-17.29Z"/><path class="cls-1" d="m521.84,488.08v-45.04h26v3.83h-21.58v15.67h19.24v3.77h-19.24v17.94h23.27v3.83h-27.69Z"/></g><line class="cls-2" y1="294.49" x2="772" y2="294.49"/></svg>