<svg width="281" height="100" xmlns="http://www.w3.org/2000/svg" xmlns:xlink="http://www.w3.org/1999/xlink" xml:space="preserve" overflow="hidden"><defs><clipPath id="clip0"><rect x="0" y="0" width="281" height="100"/></clipPath></defs><g clip-path="url(#clip0)"><path d="M232.083 0.785722 220.886 0.785722 186.511 0.785722 186.511 49.8933 220.199 49.8933 231.395 49.8933 279.521 49.8933 279.521 0.785722Z" fill="#D43F85" transform="scale(1.00388 1)"/><path d="M231.395 49.8933 220.199 49.8933 186.511 49.8933 186.511 99.0992 194.663 99.0992 208.806 99.0992 279.521 99.0992 279.521 49.8933Z" fill="#4A2664" transform="scale(1.00388 1)"/><path d="M51.0719 0.785722 36.1432 0.785722 0.687506 0.785722 0.687506 49.8933 17.777 49.8933 28.7771 49.8933 65.4113 49.8933 76.4114 49.8933 93.5991 49.8933 93.5991 21.3127 93.5991 10.018 93.5991 0.785722Z" fill="#DC8411" transform="scale(1.00388 1)"/><path d="M149.582 0.785722 135.733 0.785722 93.6973 0.785722 93.6973 10.1162 93.6973 21.4109 93.6973 49.9915 120.412 49.9915 131.608 49.9915 146.242 49.9915 157.832 49.9915 186.511 49.9915 186.511 0.785722 149.582 0.785722ZM119.331 32.7057 119.43 32.9021C119.43 32.9021 119.43 32.8039 119.43 32.8039 119.43 32.8039 119.43 32.8039 119.331 32.7057" fill="#7C216F" transform="scale(1.00388 1)"/><path d="M76.4114 49.8933 65.4113 49.8933 28.7771 49.8933 17.777 49.8933 0.687506 49.8933 0.687506 99.0992 31.7235 99.0992 44.8844 99.0992 93.5991 99.0992 93.5991 84.8579 93.5991 72.8757 93.5991 49.8933Z" fill="#6C162B" transform="scale(1.00388 1)"/><path d="M157.832 49.8933 146.242 49.8933 131.608 49.8933 120.314 49.8933 93.5991 49.8933 93.5991 72.8757 93.5991 84.8579 93.5991 99.0992 186.511 99.0992 186.511 49.8933Z" fill="#EB6F37" transform="scale(1.00388 1)"/><path d="M26.6163 66.6881 22.6877 66.6881 9.52688 28.9735 14.3394 28.9735 24.7502 58.7327 35.0628 28.9735 39.8754 28.9735Z" fill="#FFFFFF" transform="scale(1.00388 1)"/><path d="M26.6163 66.6881 22.6877 66.6881 9.52688 28.9735 14.3394 28.9735 24.7502 58.7327 35.0628 28.9735 39.8754 28.9735Z" stroke="#FFFFFF" stroke-width="0.627595" fill="none" fill-rule="evenodd" transform="scale(1.00388 1)"/><path d="M40.17 57.947C40.17 52.938 45.179 49.2058 50.6791 49.2058L53.7237 49.2058C55.0005 49.2058 56.6702 48.5183 56.6702 47.1433 56.6702 44.9826 54.4112 42.9201 51.1701 42.9201 49.1076 42.9201 47.2415 43.804 44.8844 46.8487L41.2504 44.0986C43.5093 40.3665 47.6344 38.3039 51.0719 38.3039 56.4738 38.3039 61.0899 42.2325 61.0899 47.0451L61.0899 57.8488C61.0899 62.8577 56.0809 66.5899 50.5808 66.5899 45.179 66.6881 40.17 62.956 40.17 57.947M44.6879 57.8488C44.6879 60.0095 47.3397 62.1702 50.6791 62.1702 54.1166 62.1702 56.6702 60.0095 56.6702 57.8488L56.6702 52.8398C56.6702 52.8398 56.2773 53.6255 50.6791 53.6255 47.3397 53.6255 44.6879 55.688 44.6879 57.8488" fill="#FFFFFF" transform="scale(1.00388 1)"/><path d="M40.17 57.947C40.17 52.938 45.179 49.2058 50.6791 49.2058L53.7237 49.2058C55.0005 49.2058 56.6702 48.5183 56.6702 47.1433 56.6702 44.9826 54.4112 42.9201 51.1701 42.9201 49.1076 42.9201 47.2415 43.804 44.8844 46.8487L41.2504 44.0986C43.5093 40.3665 47.6344 38.3039 51.0719 38.3039 56.4738 38.3039 61.0899 42.2325 61.0899 47.0451L61.0899 57.8488C61.0899 62.8577 56.0809 66.5899 50.5808 66.5899 45.179 66.6881 40.17 62.956 40.17 57.947ZM44.6879 57.8488C44.6879 60.0095 47.3397 62.1702 50.6791 62.1702 54.1166 62.1702 56.6702 60.0095 56.6702 57.8488L56.6702 52.8398C56.6702 52.8398 56.2773 53.6255 50.6791 53.6255 47.3397 53.6255 44.6879 55.688 44.6879 57.8488Z" stroke="#FFFFFF" stroke-width="0.627595" fill="none" fill-rule="evenodd" transform="scale(1.00388 1)"/><path d="M81.8133 66.6881 81.8133 49.4023C81.8133 45.7683 79.0632 42.9201 75.9204 42.9201 72.7775 42.9201 70.0275 45.7683 70.0275 49.4023L70.0275 66.6881 65.5095 66.6881 65.5095 49.4023C65.5095 43.4111 70.1257 38.4021 75.9204 38.4021 81.6168 38.4021 86.3312 43.4111 86.3312 49.4023L86.3312 66.6881 81.8133 66.6881Z" fill="#FFFFFF" transform="scale(1.00388 1)"/><path d="M81.8133 66.6881 81.8133 49.4023C81.8133 45.7683 79.0632 42.9201 75.9204 42.9201 72.7775 42.9201 70.0275 45.7683 70.0275 49.4023L70.0275 66.6881 65.5095 66.6881 65.5095 49.4023C65.5095 43.4111 70.1257 38.4021 75.9204 38.4021 81.6168 38.4021 86.3312 43.4111 86.3312 49.4023L86.3312 66.6881 81.8133 66.6881Z" stroke="#FFFFFF" stroke-width="0.627595" fill="none" fill-rule="evenodd" transform="scale(1.00388 1)"/><path d="M122.18 66.6881 107.153 38.9914 107.153 66.6881 102.537 66.6881 102.537 28.9735 106.76 28.9735 122.965 58.7327 122.965 28.9735 127.483 28.9735 127.483 66.6881Z" fill="#FFFFFF" transform="scale(1.00388 1)"/><path d="M122.18 66.6881 107.153 38.9914 107.153 66.6881 102.537 66.6881 102.537 28.9735 106.76 28.9735 122.965 58.7327 122.965 28.9735 127.483 28.9735 127.483 66.6881Z" stroke="#FFFFFF" stroke-width="0.627595" fill="none" fill-rule="evenodd" transform="scale(1.00388 1)"/><path d="M132.689 52.938C132.689 45.4736 137.501 38.3039 144.671 38.3039 150.073 38.3039 154.001 41.4468 154.001 45.7683 154.001 50.4826 149.385 53.6255 143.591 53.6255L138.778 53.6255C137.992 53.6255 137.501 54.1166 137.501 54.9023 137.501 58.5363 141.626 62.072 144.671 62.072 147.126 62.072 148.894 61.2863 151.251 58.1434L154.885 60.8934C152.43 64.1345 149.484 66.7863 144.867 66.7863 137.698 66.6881 132.689 60.1077 132.689 52.938M137.403 49.7951C137.6 49.5005 138.287 49.1076 139.269 49.1076L143.591 49.1076C147.323 49.1076 149.484 47.438 149.484 45.7683 149.484 44.6879 148.403 42.8218 144.671 42.8218 141.43 42.8218 138.483 45.5719 137.403 49.7951" fill="#FFFFFF" transform="scale(1.00388 1)"/><path d="M132.689 52.938C132.689 45.4736 137.501 38.3039 144.671 38.3039 150.073 38.3039 154.001 41.4468 154.001 45.7683 154.001 50.4826 149.385 53.6255 143.591 53.6255L138.778 53.6255C137.992 53.6255 137.501 54.1166 137.501 54.9023 137.501 58.5363 141.626 62.072 144.671 62.072 147.126 62.072 148.894 61.2863 151.251 58.1434L154.885 60.8934C152.43 64.1345 149.484 66.7863 144.867 66.7863 137.698 66.6881 132.689 60.1077 132.689 52.938ZM137.403 49.7951C137.6 49.5005 138.287 49.1076 139.269 49.1076L143.591 49.1076C147.323 49.1076 149.484 47.438 149.484 45.7683 149.484 44.6879 148.403 42.8218 144.671 42.8218 141.43 42.8218 138.483 45.5719 137.403 49.7951Z" stroke="#FFFFFF" stroke-width="0.627595" fill="none" fill-rule="evenodd" transform="scale(1.00388 1)"/><path d="M181.698 38.3039 170.305 68.7506C168.734 72.9739 165.002 76.0186 160.877 76.0186L158.618 76.0186 158.618 71.5989 160.877 71.5989C163.528 71.5989 166.377 68.7506 166.377 65.8042 166.377 64.4292 165.787 62.956 165.394 61.8756L156.653 38.4021 161.368 38.4021 169.127 59.2238 176.886 38.4021 181.698 38.4021 181.698 38.3039Z" fill="#FFFFFF" transform="scale(1.00388 1)"/><path d="M181.698 38.3039 170.305 68.7506C168.734 72.9739 165.002 76.0186 160.877 76.0186L158.618 76.0186 158.618 71.5989 160.877 71.5989C163.528 71.5989 166.377 68.7506 166.377 65.8042 166.377 64.4292 165.787 62.956 165.394 61.8756L156.653 38.4021 161.368 38.4021 169.127 59.2238 176.886 38.4021 181.698 38.4021 181.698 38.3039Z" stroke="#FFFFFF" stroke-width="0.627595" fill="none" fill-rule="evenodd" transform="scale(1.00388 1)"/><path d="M200.555 66.6881 200.555 49.4023C200.555 45.7683 197.805 42.9201 194.663 42.9201 191.52 42.9201 188.77 45.7683 188.77 49.4023L188.77 66.6881 184.252 66.6881 184.252 49.4023C184.252 43.4111 188.868 38.4021 194.663 38.4021 200.359 38.4021 205.073 43.4111 205.073 49.4023L205.073 66.6881 200.555 66.6881Z" fill="#FFFFFF" transform="scale(1.00388 1)"/><path d="M200.555 66.6881 200.555 49.4023C200.555 45.7683 197.805 42.9201 194.663 42.9201 191.52 42.9201 188.77 45.7683 188.77 49.4023L188.77 66.6881 184.252 66.6881 184.252 49.4023C184.252 43.4111 188.868 38.4021 194.663 38.4021 200.359 38.4021 205.073 43.4111 205.073 49.4023L205.073 66.6881 200.555 66.6881Z" stroke="#FFFFFF" stroke-width="0.627595" fill="none" fill-rule="evenodd" transform="scale(1.00388 1)"/><path d="M209.591 60.8934 213.225 58.1434C214.993 60.9916 216.957 62.072 220.493 62.072 224.225 62.072 225.993 60.4024 225.993 57.947 225.993 56.8666 225.699 56.3755 224.716 55.7862 220.984 53.6255 210.672 54.0184 210.672 46.1612 210.672 41.4468 214.404 38.3039 219.707 38.3039 222.949 38.3039 226.288 39.4825 229.725 44.0986L226.091 46.8487C223.44 43.3129 221.475 42.9201 219.707 42.9201 216.957 42.9201 215.19 44.1968 215.19 46.2594 215.19 48.5183 217.841 49.2058 221.279 50.0898 223.145 50.5808 225.109 50.9737 227.074 52.1523 229.333 53.5273 230.609 55.5898 230.609 58.1434 230.609 63.2506 226.386 66.6881 220.591 66.6881 215.582 66.6881 212.44 65.3131 209.591 60.8934" fill="#FFFFFF" transform="scale(1.00388 1)"/><path d="M209.591 60.8934 213.225 58.1434C214.993 60.9916 216.957 62.072 220.493 62.072 224.225 62.072 225.993 60.4024 225.993 57.947 225.993 56.8666 225.699 56.3755 224.716 55.7862 220.984 53.6255 210.672 54.0184 210.672 46.1612 210.672 41.4468 214.404 38.3039 219.707 38.3039 222.949 38.3039 226.288 39.4825 229.725 44.0986L226.091 46.8487C223.44 43.3129 221.475 42.9201 219.707 42.9201 216.957 42.9201 215.19 44.1968 215.19 46.2594 215.19 48.5183 217.841 49.2058 221.279 50.0898 223.145 50.5808 225.109 50.9737 227.074 52.1523 229.333 53.5273 230.609 55.5898 230.609 58.1434 230.609 63.2506 226.386 66.6881 220.591 66.6881 215.582 66.6881 212.44 65.3131 209.591 60.8934Z" stroke="#FFFFFF" stroke-width="0.627595" fill="none" fill-rule="evenodd" transform="scale(1.00388 1)"/><path d="M233.458 52.938C233.458 45.4736 238.27 38.3039 245.44 38.3039 250.842 38.3039 254.77 41.4468 254.77 45.7683 254.77 50.4826 250.154 53.6255 244.359 53.6255L239.547 53.6255C238.761 53.6255 238.27 54.1166 238.27 54.9023 238.27 58.5363 242.395 62.072 245.44 62.072 247.895 62.072 249.663 61.2863 252.02 58.1434L255.654 60.8934C253.199 64.1345 250.252 66.7863 245.636 66.7863 238.467 66.6881 233.458 60.1077 233.458 52.938M238.172 49.7951C238.368 49.5005 239.056 49.1076 240.038 49.1076L244.359 49.1076C248.092 49.1076 250.252 47.438 250.252 45.7683 250.252 44.6879 249.172 42.8218 245.44 42.8218 242.199 42.8218 239.154 45.5719 238.172 49.7951" fill="#FFFFFF" transform="scale(1.00388 1)"/><path d="M233.458 52.938C233.458 45.4736 238.27 38.3039 245.44 38.3039 250.842 38.3039 254.77 41.4468 254.77 45.7683 254.77 50.4826 250.154 53.6255 244.359 53.6255L239.547 53.6255C238.761 53.6255 238.27 54.1166 238.27 54.9023 238.27 58.5363 242.395 62.072 245.44 62.072 247.895 62.072 249.663 61.2863 252.02 58.1434L255.654 60.8934C253.199 64.1345 250.252 66.7863 245.636 66.7863 238.467 66.6881 233.458 60.1077 233.458 52.938ZM238.172 49.7951C238.368 49.5005 239.056 49.1076 240.038 49.1076L244.359 49.1076C248.092 49.1076 250.252 47.438 250.252 45.7683 250.252 44.6879 249.172 42.8218 245.44 42.8218 242.199 42.8218 239.154 45.5719 238.172 49.7951Z" stroke="#FFFFFF" stroke-width="0.627595" fill="none" fill-rule="evenodd" transform="scale(1.00388 1)"/><path d="M261.056 28.9735 265.574 28.9735 265.574 66.6881 261.056 66.6881Z" fill="#FFFFFF" transform="scale(1.00388 1)"/><path d="M261.056 28.9735 265.574 28.9735 265.574 66.6881 261.056 66.6881Z" stroke="#FFFFFF" stroke-width="0.627595" fill="none" fill-rule="evenodd" transform="scale(1.00388 1)"/><path d="M102.242 116.385C102.242 111.474 105.483 106.465 110.394 106.465 115.108 106.465 118.546 111.278 118.546 116.385 118.546 120.805 115.698 126.305 110.394 126.305 105.287 126.305 102.242 121.001 102.242 116.385M104.599 116.385C104.599 120.707 107.349 123.948 110.394 123.948 113.439 123.948 116.09 120.707 116.09 116.385 116.09 112.162 113.439 108.921 110.394 108.921 107.349 108.921 104.599 112.162 104.599 116.385" fill="#492766" transform="scale(1.00388 1)"/><path d="M120.117 118.84C120.117 114.814 122.965 111.376 126.599 111.376 130.626 111.376 133.082 115.108 133.082 118.84 133.082 122.867 130.135 126.305 126.599 126.305 122.671 126.207 120.117 122.573 120.117 118.84M122.474 118.84C122.474 121.787 124.439 123.948 126.599 123.948 128.76 123.948 130.724 121.787 130.724 118.84 130.724 115.992 128.76 113.733 126.599 113.733 124.439 113.733 122.474 115.894 122.474 118.84" fill="#492766" transform="scale(1.00388 1)"/><path d="M146.341 111.376 146.341 126.403C146.341 129.055 143.885 131.216 141.135 131.216 139.564 131.216 137.207 130.43 136.028 128.171L137.894 126.796C138.68 128.269 139.957 128.858 141.135 128.858 142.707 128.858 143.984 127.876 143.984 126.599 143.984 126.207 143.689 126.01 143.198 126.01L142.707 126.01C138.68 126.01 135.341 122.769 135.341 118.742 135.341 114.715 138.68 111.474 142.608 111.474L146.341 111.474 146.341 111.376ZM143.984 123.751 143.984 113.635 142.608 113.635C139.858 113.635 137.6 115.894 137.6 118.644 137.6 121.394 139.858 123.653 142.707 123.653 143.591 123.653 143.984 123.751 143.984 123.751" fill="#492766" transform="scale(1.00388 1)"/><path d="M160.68 126.207 155.18 111.376 157.635 111.376 161.662 122.082 165.689 111.376 168.144 111.376 162.644 126.207Z" fill="#492766" transform="scale(1.00388 1)"/><path d="M169.127 118.84C169.127 114.814 171.975 111.376 175.609 111.376 179.636 111.376 182.091 115.108 182.091 118.84 182.091 122.867 179.145 126.305 175.609 126.305 171.778 126.207 169.127 122.573 169.127 118.84M171.582 118.84C171.582 121.787 173.546 123.948 175.707 123.948 177.868 123.948 179.832 121.787 179.832 118.84 179.832 115.992 177.868 113.733 175.707 113.733 173.448 113.733 171.582 115.894 171.582 118.84" fill="#492766" transform="scale(1.00388 1)"/><path d="M183.957 118.84C183.957 114.814 186.805 111.376 190.439 111.376 194.466 111.376 196.922 115.108 196.922 118.84 196.922 122.867 193.975 126.305 190.439 126.305 186.511 126.207 183.957 122.573 183.957 118.84M186.314 118.84C186.314 121.787 188.279 123.948 190.439 123.948 192.6 123.948 194.564 121.787 194.564 118.84 194.564 115.992 192.6 113.733 190.439 113.733 188.279 113.733 186.314 115.894 186.314 118.84" fill="#492766" transform="scale(1.00388 1)"/><path d="M199.672 126.207 199.672 117.073C199.672 113.93 202.127 111.278 205.172 111.278L205.761 111.278 205.761 113.635 205.172 113.635C203.502 113.635 202.029 115.108 202.029 117.073L202.029 126.207 199.672 126.207Z" fill="#492766" transform="scale(1.00388 1)"/><path d="M214.207 119.037C214.207 115.108 216.761 111.376 220.493 111.376 223.341 111.376 225.404 113.046 225.404 115.305 225.404 117.76 222.949 119.43 219.904 119.43L217.35 119.43C216.957 119.43 216.663 119.626 216.663 120.117 216.663 121.983 218.824 123.849 220.395 123.849 221.672 123.849 222.556 123.457 223.832 121.787L225.699 123.162C224.422 124.832 222.85 126.207 220.395 126.207 216.761 126.207 214.207 122.769 214.207 119.037M216.663 117.367C216.761 117.269 217.154 117.073 217.645 117.073L219.904 117.073C221.868 117.073 223.047 116.189 223.047 115.305 223.047 114.715 222.457 113.733 220.493 113.733 218.725 113.733 217.154 115.206 216.663 117.367" fill="#492766" transform="scale(1.00388 1)"/><path d="M228.645 106.465 231.002 106.465 231.002 126.305 228.645 126.305Z" fill="#492766" transform="scale(1.00388 1)"/><path d="M237.583 119.626C237.288 119.233 236.895 119.135 236.699 119.43L236.208 119.823 236.208 126.207 233.85 126.207 233.85 106.367 236.208 106.367 236.208 116.68 242.297 111.278 245.833 111.278 238.761 117.465 238.761 117.465C238.958 117.465 239.547 117.858 239.94 118.546L245.734 126.207 242.493 126.207 237.583 119.626Z" fill="#492766" transform="scale(1.00388 1)"/><path d="M246.52 121.689C246.52 119.037 249.172 117.073 252.02 117.073L253.592 117.073C254.279 117.073 255.163 116.68 255.163 115.992 255.163 114.912 253.985 113.733 252.217 113.733 251.136 113.733 250.154 114.126 248.976 115.796L247.109 114.421C248.288 112.456 250.449 111.376 252.217 111.376 255.065 111.376 257.52 113.439 257.52 115.992L257.52 121.689C257.52 124.34 254.868 126.305 252.02 126.305 249.074 126.207 246.52 124.242 246.52 121.689M248.877 121.59C248.877 122.769 250.252 123.849 252.02 123.849 253.788 123.849 255.163 122.769 255.163 121.59L255.163 118.939C255.163 118.939 254.967 119.331 252.02 119.331 250.252 119.43 248.877 120.51 248.877 121.59" fill="#492766" transform="scale(1.00388 1)"/><path d="M259.485 121.689C259.485 119.037 262.136 117.073 264.985 117.073L266.556 117.073C267.244 117.073 268.128 116.68 268.128 115.992 268.128 114.912 266.949 113.733 265.181 113.733 264.101 113.733 263.119 114.126 261.94 115.796L260.074 114.421C261.252 112.456 263.413 111.376 265.181 111.376 268.029 111.376 270.485 113.439 270.485 115.992L270.485 121.689C270.485 124.34 267.833 126.305 264.985 126.305 262.038 126.207 259.485 124.242 259.485 121.689M261.842 121.59C261.842 122.769 263.217 123.849 264.985 123.849 266.753 123.849 268.128 122.769 268.128 121.59L268.128 118.939C268.128 118.939 267.931 119.331 264.985 119.331 263.217 119.43 261.842 120.51 261.842 121.59" fill="#492766" transform="scale(1.00388 1)"/><path d="M273.431 126.207 273.431 117.073C273.431 113.93 275.887 111.278 278.931 111.278L279.521 111.278 279.521 113.635 278.931 113.635C277.262 113.635 275.788 115.108 275.788 117.073L275.788 126.207 273.431 126.207Z" fill="#492766" transform="scale(1.00388 1)"/></g></svg>